<svg width="255" height="33" viewBox="0 0 255 33" fill="none" xmlns="http://www.w3.org/2000/svg">
<g clip-path="url(#clip0_29_76)">
<path d="M40.6302 7.65939C37.7592 3.32616 32.8302 0.463135 27.2301 0.463135C18.9075 0.463135 12.0623 6.78887 11.2494 14.8943C10.7848 14.8169 10.301 14.7783 9.81709 14.7783C4.89448 14.7783 0.907349 18.7633 0.907349 23.6769C0.907349 27.0428 2.77833 29.9703 5.53319 31.4857C8.79773 27.8166 20.5398 15.7971 40.6302 7.65939Z" fill="#1062FE"/>
<path d="M55.1077 20.3881C55.1077 13.6562 49.6496 8.20093 42.9141 8.20093C42.2818 8.20093 41.6689 8.24607 41.0625 8.34279C41.0496 8.32344 41.0367 8.3041 41.0302 8.28476C35.0624 11.9732 24.514 19.9496 19.701 32.5882H42.927L42.9206 32.5818C49.6496 32.5753 55.1077 27.1201 55.1077 20.3881Z" fill="#1062FE"/>
<path d="M41.0238 3.25523L44.5335 4.22247L52.1271 1.50775L46.6238 4.80281H46.6367L49.1787 7.7948L54.4755 0.463135L41.0238 3.25523Z" fill="#1062FE"/>
<path d="M26.8495 3.21655C19.8688 3.21655 14.2171 8.87167 14.2171 15.8422C14.2171 18.0733 14.7978 20.169 15.8171 21.9939C21.1462 17.809 28.3721 13.0437 37.4754 9.00709C35.2173 5.52503 31.3011 3.21655 26.8495 3.21655Z" fill="#1062FE"/>
<path d="M9.8558 15.9648C5.90738 15.9648 2.70091 19.1632 2.70091 23.116C2.70091 26.1079 4.53963 28.6744 7.15255 29.7383C9.17192 27.6555 12.3719 24.612 16.7591 21.2589C15.9462 18.2088 13.1655 15.9648 9.8558 15.9648Z" fill="#1062FE"/>
</g>
<path d="M247.839 28.0825C246.095 28.0825 244.572 27.6716 243.269 26.8498C241.986 26.008 241.104 24.8756 240.623 23.4525L243.57 22.0394C243.991 22.9614 244.572 23.683 245.314 24.2041C246.075 24.7252 246.917 24.9858 247.839 24.9858C248.561 24.9858 249.132 24.8255 249.553 24.5048C249.974 24.1841 250.184 23.7632 250.184 23.242C250.184 22.9213 250.094 22.6608 249.913 22.4603C249.753 22.2399 249.523 22.0595 249.222 21.9192C248.941 21.7588 248.631 21.6286 248.29 21.5283L245.614 20.7767C244.231 20.3758 243.179 19.7645 242.457 18.9428C241.756 18.121 241.405 17.1489 241.405 16.0265C241.405 15.0243 241.656 14.1524 242.157 13.4108C242.678 12.6492 243.389 12.0579 244.291 11.637C245.213 11.2161 246.266 11.0056 247.448 11.0056C248.991 11.0056 250.354 11.3764 251.537 12.118C252.72 12.8596 253.561 13.9019 254.062 15.2448L251.056 16.6578C250.775 15.9162 250.304 15.3249 249.643 14.884C248.981 14.443 248.24 14.2226 247.418 14.2226C246.757 14.2226 246.236 14.3729 245.855 14.6735C245.474 14.9742 245.283 15.365 245.283 15.8461C245.283 16.1467 245.364 16.4073 245.524 16.6278C245.684 16.8482 245.905 17.0286 246.185 17.1689C246.486 17.3092 246.827 17.4395 247.208 17.5598L249.823 18.3415C251.166 18.7423 252.198 19.3436 252.92 20.1454C253.662 20.9471 254.032 21.9292 254.032 23.0917C254.032 24.0738 253.772 24.9457 253.251 25.7074C252.73 26.449 252.008 27.0302 251.086 27.4511C250.164 27.872 249.082 28.0825 247.839 28.0825Z" fill="white"/>
<path d="M230.371 27.7217V11.3664H234.069V15.0043L233.768 14.4631C234.149 13.2405 234.74 12.3886 235.542 11.9076C236.364 11.4266 237.346 11.186 238.488 11.186H239.45V14.6736H238.037C236.915 14.6736 236.013 15.0243 235.331 15.7258C234.65 16.4073 234.309 17.3694 234.309 18.6121V27.7217H230.371Z" fill="white"/>
<path d="M219.718 28.0825C218.035 28.0825 216.562 27.7017 215.299 26.94C214.036 26.1784 213.054 25.1461 212.353 23.8433C211.651 22.5405 211.3 21.0974 211.3 19.514C211.3 17.8704 211.651 16.4173 212.353 15.1546C213.074 13.8718 214.046 12.8596 215.269 12.118C216.511 11.3764 217.894 11.0056 219.418 11.0056C220.701 11.0056 221.823 11.2161 222.785 11.637C223.767 12.0579 224.599 12.6391 225.28 13.3807C225.962 14.1223 226.483 14.9742 226.844 15.9363C227.205 16.8783 227.385 17.9005 227.385 19.0029C227.385 19.2835 227.365 19.5741 227.325 19.8748C227.305 20.1754 227.255 20.436 227.175 20.6565H214.547V17.65H224.95L223.086 19.063C223.266 18.141 223.216 17.3192 222.935 16.5977C222.675 15.8761 222.234 15.3049 221.613 14.884C221.011 14.4631 220.28 14.2526 219.418 14.2526C218.596 14.2526 217.864 14.4631 217.223 14.884C216.582 15.2849 216.091 15.8862 215.75 16.6879C215.429 17.4696 215.309 18.4216 215.389 19.5441C215.309 20.5462 215.439 21.4381 215.78 22.2198C216.141 22.9815 216.662 23.5728 217.343 23.9937C218.045 24.4146 218.847 24.625 219.748 24.625C220.65 24.625 221.412 24.4346 222.033 24.0538C222.675 23.673 223.176 23.1619 223.537 22.5205L226.724 24.0839C226.403 24.8655 225.902 25.557 225.22 26.1583C224.539 26.7596 223.727 27.2306 222.785 27.5714C221.863 27.9121 220.841 28.0825 219.718 28.0825Z" fill="white"/>
<path d="M207.145 27.9022C205.301 27.9022 203.868 27.4011 202.846 26.3989C201.844 25.3767 201.343 23.9436 201.343 22.0997V14.8841H198.517V11.3665H198.817C199.619 11.3665 200.24 11.156 200.681 10.7351C201.122 10.3142 201.343 9.70289 201.343 8.90115V7.63843H205.281V11.3665H209.039V14.8841H205.281V21.8892C205.281 22.4304 205.371 22.8914 205.552 23.2722C205.752 23.653 206.053 23.9436 206.454 24.1441C206.875 24.3445 207.406 24.4447 208.047 24.4447C208.187 24.4447 208.348 24.4347 208.528 24.4147C208.729 24.3946 208.919 24.3746 209.099 24.3545V27.7218C208.819 27.7619 208.498 27.802 208.137 27.8421C207.777 27.8821 207.446 27.9022 207.145 27.9022Z" fill="white"/>
<path d="M188.635 27.7218V14.8841H185.749V11.3665H188.635V10.8253C188.635 9.58262 188.886 8.53035 189.387 7.66849C189.908 6.78658 190.63 6.11514 191.552 5.65414C192.474 5.19314 193.566 4.96265 194.829 4.96265C195.069 4.96265 195.33 4.98269 195.61 5.02278C195.911 5.04282 196.162 5.07289 196.362 5.11297V8.51031C196.162 8.47022 195.971 8.45018 195.791 8.45018C195.63 8.43013 195.48 8.42011 195.34 8.42011C194.458 8.42011 193.776 8.62054 193.295 9.02141C192.814 9.40223 192.574 10.0035 192.574 10.8253V11.3665H196.212V14.8841H192.574V27.7218H188.635Z" fill="white"/>
<path d="M174.497 28.0825C173.354 28.0825 172.362 27.8921 171.52 27.5113C170.679 27.1304 170.027 26.5893 169.566 25.8877C169.105 25.1662 168.875 24.3344 168.875 23.3924C168.875 22.4904 169.075 21.6887 169.476 20.9872C169.877 20.2656 170.498 19.6643 171.34 19.1833C172.182 18.7022 173.244 18.3615 174.527 18.1611L179.878 17.2892V20.2957L175.278 21.0774C174.497 21.2177 173.916 21.4682 173.535 21.829C173.154 22.1898 172.963 22.6608 172.963 23.242C172.963 23.8032 173.174 24.2542 173.595 24.595C174.036 24.9156 174.577 25.076 175.218 25.076C176.04 25.076 176.762 24.9056 177.383 24.5649C178.024 24.2041 178.515 23.7131 178.856 23.0917C179.217 22.4704 179.397 21.7889 179.397 21.0473V16.8382C179.397 16.1367 179.117 15.5554 178.556 15.0944C178.014 14.6134 177.293 14.3729 176.391 14.3729C175.549 14.3729 174.797 14.6034 174.136 15.0644C173.495 15.5053 173.024 16.0966 172.723 16.8382L169.506 15.2748C169.827 14.413 170.328 13.6714 171.009 13.05C171.711 12.4086 172.533 11.9076 173.475 11.5468C174.417 11.186 175.439 11.0056 176.541 11.0056C177.884 11.0056 179.067 11.2562 180.089 11.7572C181.111 12.2383 181.903 12.9197 182.464 13.8017C183.045 14.6635 183.336 15.6757 183.336 16.8382V27.7217H179.608V24.9257L180.45 24.8655C180.029 25.5671 179.528 26.1583 178.946 26.6394C178.365 27.1004 177.704 27.4611 176.962 27.7217C176.221 27.9622 175.399 28.0825 174.497 28.0825Z" fill="white"/>
<path d="M158.291 27.7217V11.3664H161.989V15.0043L161.688 14.4631C162.069 13.2405 162.661 12.3886 163.462 11.9076C164.284 11.4266 165.266 11.186 166.409 11.186H167.371V14.6736H165.958C164.835 14.6736 163.933 15.0243 163.252 15.7258C162.57 16.4073 162.23 17.3694 162.23 18.6121V27.7217H158.291Z" fill="white"/>
<path d="M145.862 28.0826C144.258 28.0826 142.775 27.7919 141.412 27.2107C140.069 26.6294 138.887 25.8177 137.865 24.7754C136.862 23.7332 136.081 22.5105 135.52 21.1075C134.958 19.7045 134.678 18.1712 134.678 16.5076C134.678 14.844 134.948 13.3107 135.489 11.9076C136.051 10.4846 136.832 9.26193 137.835 8.23972C138.857 7.19747 140.049 6.39574 141.412 5.83453C142.775 5.25327 144.258 4.96265 145.862 4.96265C147.465 4.96265 148.898 5.23323 150.161 5.7744C151.444 6.31557 152.526 7.03713 153.408 7.93907C154.29 8.82098 154.921 9.79308 155.302 10.8554L151.634 12.5691C151.213 11.4466 150.502 10.5247 149.5 9.8031C148.498 9.0615 147.285 8.6907 145.862 8.6907C144.459 8.6907 143.216 9.02141 142.134 9.68284C141.072 10.3443 140.24 11.2562 139.638 12.4187C139.057 13.5813 138.767 14.9442 138.767 16.5076C138.767 18.0709 139.057 19.4439 139.638 20.6265C140.24 21.789 141.072 22.7009 142.134 23.3624C143.216 24.0238 144.459 24.3545 145.862 24.3545C147.285 24.3545 148.498 23.9937 149.5 23.2722C150.502 22.5306 151.213 21.5986 151.634 20.4761L155.302 22.1898C154.921 23.2521 154.29 24.2343 153.408 25.1362C152.526 26.0181 151.444 26.7296 150.161 27.2708C148.898 27.812 147.465 28.0826 145.862 28.0826Z" fill="white"/>
<path d="M130.045 27.9022C128.201 27.9022 126.768 27.4011 125.746 26.3989C124.744 25.3767 124.243 23.9436 124.243 22.0997V14.8841H121.416V11.3665H121.717C122.519 11.3665 123.14 11.156 123.581 10.7351C124.022 10.3142 124.243 9.70289 124.243 8.90115V7.63843H128.181V11.3665H131.939V14.8841H128.181V21.8892C128.181 22.4304 128.271 22.8914 128.452 23.2722C128.652 23.653 128.953 23.9436 129.354 24.1441C129.775 24.3445 130.306 24.4447 130.947 24.4447C131.087 24.4447 131.248 24.4347 131.428 24.4147C131.629 24.3946 131.819 24.3746 131.999 24.3545V27.7218C131.719 27.7619 131.398 27.802 131.037 27.8421C130.676 27.8821 130.346 27.9022 130.045 27.9022Z" fill="white"/>
<path d="M113.369 28.0825C111.625 28.0825 110.102 27.6716 108.799 26.8498C107.516 26.008 106.634 24.8756 106.153 23.4525L109.1 22.0394C109.521 22.9614 110.102 23.683 110.843 24.2041C111.605 24.7252 112.447 24.9858 113.369 24.9858C114.091 24.9858 114.662 24.8255 115.083 24.5048C115.504 24.1841 115.714 23.7632 115.714 23.242C115.714 22.9213 115.624 22.6608 115.443 22.4603C115.283 22.2399 115.053 22.0595 114.752 21.9192C114.471 21.7588 114.161 21.6286 113.82 21.5283L111.144 20.7767C109.761 20.3758 108.709 19.7645 107.987 18.9428C107.286 18.121 106.935 17.1489 106.935 16.0265C106.935 15.0243 107.186 14.1524 107.687 13.4108C108.208 12.6492 108.919 12.0579 109.821 11.637C110.743 11.2161 111.796 11.0056 112.978 11.0056C114.521 11.0056 115.884 11.3764 117.067 12.118C118.249 12.8596 119.091 13.9019 119.592 15.2448L116.586 16.6578C116.305 15.9162 115.834 15.3249 115.173 14.884C114.511 14.443 113.77 14.2226 112.948 14.2226C112.287 14.2226 111.765 14.3729 111.385 14.6735C111.004 14.9742 110.813 15.365 110.813 15.8461C110.813 16.1467 110.894 16.4073 111.054 16.6278C111.214 16.8482 111.435 17.0286 111.715 17.1689C112.016 17.3092 112.357 17.4395 112.738 17.5598L115.353 18.3415C116.696 18.7423 117.728 19.3436 118.45 20.1454C119.192 20.9471 119.562 21.9292 119.562 23.0917C119.562 24.0738 119.302 24.9457 118.781 25.7074C118.26 26.449 117.538 27.0302 116.616 27.4511C115.694 27.872 114.612 28.0825 113.369 28.0825Z" fill="white"/>
<path d="M95.5301 28.0825C93.9267 28.0825 92.4635 27.7117 91.1406 26.9701C89.8378 26.2285 88.7956 25.2163 88.0139 23.9335C87.2522 22.6508 86.8714 21.1876 86.8714 19.5441C86.8714 17.9005 87.2522 16.4373 88.0139 15.1546C88.7956 13.8718 89.8378 12.8596 91.1406 12.118C92.4435 11.3764 93.9066 11.0056 95.5301 11.0056C97.1336 11.0056 98.5867 11.3764 99.8895 12.118C101.192 12.8596 102.225 13.8718 102.986 15.1546C103.768 16.4173 104.159 17.8805 104.159 19.5441C104.159 21.1876 103.768 22.6508 102.986 23.9335C102.205 25.2163 101.162 26.2285 99.8595 26.9701C98.5567 27.7117 97.1135 28.0825 95.5301 28.0825ZM95.5301 24.4747C96.412 24.4747 97.1837 24.2642 97.8451 23.8433C98.5266 23.4224 99.0577 22.8412 99.4386 22.0996C99.8394 21.3379 100.04 20.4861 100.04 19.5441C100.04 18.582 99.8394 17.7402 99.4386 17.0186C99.0577 16.277 98.5266 15.6957 97.8451 15.2748C97.1837 14.8339 96.412 14.6134 95.5301 14.6134C94.6282 14.6134 93.8365 14.8339 93.155 15.2748C92.4735 15.6957 91.9324 16.277 91.5315 17.0186C91.1507 17.7402 90.9603 18.582 90.9603 19.5441C90.9603 20.4861 91.1507 21.3379 91.5315 22.0996C91.9324 22.8412 92.4735 23.4224 93.155 23.8433C93.8365 24.2642 94.6282 24.4747 95.5301 24.4747Z" fill="white"/>
<path d="M65.814 27.7218V5.32349H69.9028V15.0946H79.4334V5.32349H83.5523V27.7218H79.4334V18.7024H69.9028V27.7218H65.814Z" fill="white"/>
<defs>
<clipPath id="clip0_29_76">
<rect width="54.2004" height="32.1188" fill="white" transform="translate(0.907349 0.463135)"/>
</clipPath>
</defs>
</svg>
