<svg width="47" height="47" viewBox="0 0 47 47" fill="none" xmlns="http://www.w3.org/2000/svg">
<path d="M23.7658 44.9248H23.2676C22.8031 44.9251 22.3423 44.8417 21.9074 44.6787C17.1063 42.8825 13.2486 39.9715 10.4411 36.0264C8.23651 32.9285 6.70743 29.2251 5.89642 25.0193C4.55872 18.082 5.64195 12.0686 5.68872 11.816C5.92823 10.5228 6.79573 9.44796 8.0093 8.94095L22.0203 3.0875C22.4968 2.88841 23.0002 2.78748 23.5167 2.78748C24.0331 2.78748 24.5366 2.88841 25.0131 3.08748L39.0241 8.94093C40.2376 9.44798 41.1051 10.5228 41.3446 11.816C41.3914 12.0686 42.4745 18.0827 41.1369 25.0192C40.3259 29.2251 38.7968 32.9284 36.5922 36.0264C33.7848 39.9715 29.927 42.8825 25.126 44.6787C24.691 44.8417 24.2303 44.9251 23.7658 44.9248ZM23.5167 4.23425C23.1944 4.23392 22.8752 4.2979 22.578 4.42244L8.56701 10.2759C7.80574 10.5939 7.26154 11.2682 7.11131 12.0794C7.06657 12.321 6.0305 18.0735 7.31702 24.7453C8.08854 28.7463 9.53624 32.2596 11.6199 35.1876C14.2568 38.8931 17.8886 41.6304 22.4143 43.3236C22.6872 43.4259 22.9762 43.4782 23.2676 43.478H23.7657C24.0581 43.478 24.3452 43.4261 24.6191 43.3236C29.1447 41.6305 32.7765 38.8931 35.4134 35.1876C37.4971 32.2596 38.9448 28.7463 39.7163 24.7453C41.0027 18.0742 39.9667 12.321 39.922 12.0793C39.7718 11.2682 39.2276 10.5939 38.4663 10.2759L24.4554 4.42242C24.1581 4.29789 23.839 4.23392 23.5167 4.23425Z" fill="#1062FE"/>
<path d="M23.766 41.7663H23.2678C23.1813 41.7663 23.0954 41.7507 23.0144 41.7204C18.8144 40.1491 15.4501 37.6172 13.0148 34.1951C11.0743 31.4682 9.72281 28.1798 8.99805 24.4212C8.35728 21.0983 8.33504 18.012 8.42919 16.0081C8.53153 13.8307 8.78397 12.4488 8.79466 12.3911C8.81655 12.2729 8.86754 12.162 8.94304 12.0685C9.01855 11.9749 9.11617 11.9017 9.22709 11.8554L23.238 6.0019C23.3264 5.96499 23.4211 5.94598 23.5169 5.94598C23.6126 5.94598 23.7074 5.96499 23.7957 6.0019L37.8067 11.8554C37.9176 11.9017 38.0152 11.9749 38.0907 12.0685C38.1662 12.162 38.2172 12.2729 38.2391 12.3911C38.2498 12.4489 38.5022 13.8307 38.6046 16.0081C38.6987 18.012 38.6765 21.0983 38.0357 24.4212C37.311 28.1798 35.9595 31.4682 34.019 34.1951C31.5837 37.6172 28.2194 40.1491 24.0194 41.7204C23.9384 41.7507 23.8525 41.7663 23.766 41.7663ZM23.3997 40.3195H23.6341C30.6966 37.6342 35.0635 32.1939 36.6152 24.1473C37.6101 18.9875 37.0713 14.3624 36.877 13.0349L23.5169 7.45335L10.1566 13.035C10.0766 13.5784 9.93861 14.673 9.87237 16.1198C9.78419 18.0459 9.80881 21.0094 10.4269 24.1897C11.9862 32.2132 16.3502 37.6392 23.3997 40.3195Z" fill="#1062FE"/>
<path d="M27.0034 32.8107H20.0304C18.1578 32.8107 16.6343 31.2872 16.6343 29.4144V23.7481C16.6343 21.8753 18.1578 20.3517 20.0304 20.3517H27.0034C28.876 20.3517 30.3994 21.8753 30.3994 23.7481V29.4144C30.3994 31.2872 28.876 32.8107 27.0034 32.8107ZM20.0304 21.7985C18.9555 21.7985 18.0811 22.6731 18.0811 23.7481V29.4144C18.0811 30.4894 18.9555 31.364 20.0304 31.364H27.0034C28.0782 31.364 28.9526 30.4894 28.9526 29.4144V23.7481C28.9526 22.6731 28.0782 21.7985 27.0034 21.7985H20.0304ZM23.5169 27.4457C22.4117 27.4457 21.5126 26.5466 21.5126 25.4415C21.5126 24.3362 22.4117 23.437 23.5169 23.437C24.622 23.437 25.5211 24.3362 25.5211 25.4415C25.5211 26.5466 24.622 27.4457 23.5169 27.4457ZM23.5169 24.8838C23.2095 24.8838 22.9594 25.1339 22.9594 25.4415C22.9594 25.7489 23.2095 25.9989 23.5169 25.9989C23.8242 25.9989 24.0743 25.7488 24.0743 25.4415C24.0743 25.1339 23.8243 24.8838 23.5169 24.8838Z" fill="#1062FE"/>
<path d="M28.0215 21.7986C27.622 21.7986 27.2981 21.4747 27.2981 21.0752V18.8595C27.2981 16.7744 25.6018 15.0781 23.5167 15.0781C21.4317 15.0781 19.7353 16.7745 19.7353 18.8595V21.0752C19.7353 21.4747 19.4115 21.7986 19.012 21.7986C18.6124 21.7986 18.2886 21.4747 18.2886 21.0752V18.8595C18.2886 17.463 18.8324 16.1501 19.8199 15.1626C20.8073 14.1752 22.1202 13.6313 23.5167 13.6313C24.9132 13.6313 26.2262 14.1752 27.2136 15.1626C28.2011 16.1501 28.7449 17.463 28.7449 18.8595V21.0752C28.7449 21.4747 28.421 21.7986 28.0215 21.7986ZM23.5167 29.6048C23.1172 29.6048 22.7934 29.2809 22.7934 28.8814V26.7223C22.7934 26.3228 23.1172 25.9989 23.5167 25.9989C23.9163 25.9989 24.2401 26.3228 24.2401 26.7223V28.8814C24.2401 29.2809 23.9163 29.6048 23.5167 29.6048Z" fill="#1062FE"/>
</svg>
